<mxfile host="65bd71144e">
    <diagram name="Page-1" id="-DusnCzVRB6GDKUEnrHu">
        <mxGraphModel dx="1527" dy="1038" grid="1" gridSize="10" guides="1" tooltips="1" connect="1" arrows="1" fold="1" page="0" pageScale="1" pageWidth="827" pageHeight="1169" background="none" math="0" shadow="0">
            <root>
                <mxCell id="0"/>
                <mxCell id="1" parent="0"/>
                <mxCell id="dp8s6cwn2FolOlBTgPiy-1" value="Category" style="whiteSpace=wrap;html=1;align=center;fillColor=#1ba1e2;fontColor=#ffffff;strokeColor=#006EAF;" parent="1" vertex="1">
                    <mxGeometry x="-270" y="-50" width="100" height="40" as="geometry"/>
                </mxCell>
                <mxCell id="dp8s6cwn2FolOlBTgPiy-2" value="publisher" style="whiteSpace=wrap;html=1;align=center;fillColor=#1ba1e2;fontColor=#ffffff;strokeColor=#006EAF;" parent="1" vertex="1">
                    <mxGeometry x="-270" y="130" width="100" height="40" as="geometry"/>
                </mxCell>
                <mxCell id="dp8s6cwn2FolOlBTgPiy-3" value="location" style="whiteSpace=wrap;html=1;align=center;fillColor=#1ba1e2;fontColor=#ffffff;strokeColor=#006EAF;" parent="1" vertex="1">
                    <mxGeometry x="-270" y="310" width="100" height="40" as="geometry"/>
                </mxCell>
                <mxCell id="dp8s6cwn2FolOlBTgPiy-4" value="Book_Request" style="whiteSpace=wrap;html=1;align=center;fillColor=#1ba1e2;fontColor=#ffffff;strokeColor=#006EAF;" parent="1" vertex="1">
                    <mxGeometry x="-270" y="490" width="100" height="40" as="geometry"/>
                </mxCell>
                <mxCell id="dp8s6cwn2FolOlBTgPiy-5" value="Book_Request_status" style="whiteSpace=wrap;html=1;align=center;fillColor=#1ba1e2;fontColor=#ffffff;strokeColor=#006EAF;" parent="1" vertex="1">
                    <mxGeometry x="-290" y="700" width="140" height="50" as="geometry"/>
                </mxCell>
                <mxCell id="dp8s6cwn2FolOlBTgPiy-6" value="Book" style="whiteSpace=wrap;html=1;align=center;fillColor=#1ba1e2;fontColor=#ffffff;strokeColor=#006EAF;" parent="1" vertex="1">
                    <mxGeometry x="100" y="-50" width="100" height="40" as="geometry"/>
                </mxCell>
                <mxCell id="dp8s6cwn2FolOlBTgPiy-7" value="Member" style="whiteSpace=wrap;html=1;align=center;fillColor=#1ba1e2;fontColor=#ffffff;strokeColor=#006EAF;" parent="1" vertex="1">
                    <mxGeometry x="150" y="270" width="100" height="40" as="geometry"/>
                </mxCell>
                <mxCell id="dp8s6cwn2FolOlBTgPiy-8" value="Member_Status" style="whiteSpace=wrap;html=1;align=center;fillColor=#1ba1e2;fontColor=#ffffff;strokeColor=#006EAF;" parent="1" vertex="1">
                    <mxGeometry x="130" y="760" width="100" height="40" as="geometry"/>
                </mxCell>
                <mxCell id="dp8s6cwn2FolOlBTgPiy-9" value="Book_Author" style="whiteSpace=wrap;html=1;align=center;fillColor=#1ba1e2;fontColor=#ffffff;strokeColor=#006EAF;" parent="1" vertex="1">
                    <mxGeometry x="630" y="-50" width="100" height="40" as="geometry"/>
                </mxCell>
                <mxCell id="dp8s6cwn2FolOlBTgPiy-10" value="Book_Issue" style="whiteSpace=wrap;html=1;align=center;fillColor=#1ba1e2;fontColor=#ffffff;strokeColor=#006EAF;" parent="1" vertex="1">
                    <mxGeometry x="650" y="260" width="100" height="40" as="geometry"/>
                </mxCell>
                <mxCell id="dp8s6cwn2FolOlBTgPiy-11" value="Author" style="whiteSpace=wrap;html=1;align=center;fillColor=#1ba1e2;fontColor=#ffffff;strokeColor=#006EAF;" parent="1" vertex="1">
                    <mxGeometry x="1130" y="-50" width="100" height="40" as="geometry"/>
                </mxCell>
                <mxCell id="dp8s6cwn2FolOlBTgPiy-12" value="Library_Staff" style="whiteSpace=wrap;html=1;align=center;fillColor=#1ba1e2;fontColor=#ffffff;strokeColor=#006EAF;" parent="1" vertex="1">
                    <mxGeometry x="1150" y="130" width="100" height="40" as="geometry"/>
                </mxCell>
                <mxCell id="dp8s6cwn2FolOlBTgPiy-13" value="Fine_Due" style="whiteSpace=wrap;html=1;align=center;fillColor=#1ba1e2;fontColor=#ffffff;strokeColor=#006EAF;" parent="1" vertex="1">
                    <mxGeometry x="1170" y="300" width="100" height="40" as="geometry"/>
                </mxCell>
                <mxCell id="dp8s6cwn2FolOlBTgPiy-14" value="Fine_Payment" style="whiteSpace=wrap;html=1;align=center;fillColor=#1ba1e2;fontColor=#ffffff;strokeColor=#006EAF;" parent="1" vertex="1">
                    <mxGeometry x="1160" y="480" width="110" height="40" as="geometry"/>
                </mxCell>
                <mxCell id="dp8s6cwn2FolOlBTgPiy-15" value="have" style="shape=rhombus;perimeter=rhombusPerimeter;whiteSpace=wrap;html=1;align=center;fillColor=#fa6800;fontColor=#000000;strokeColor=#C73500;" parent="1" vertex="1">
                    <mxGeometry x="840" y="-50" width="100" height="40" as="geometry"/>
                </mxCell>
                <mxCell id="dp8s6cwn2FolOlBTgPiy-16" value="have" style="shape=rhombus;perimeter=rhombusPerimeter;whiteSpace=wrap;html=1;align=center;" parent="1" vertex="1">
                    <mxGeometry x="270" y="-50" width="100" height="40" as="geometry"/>
                </mxCell>
                <mxCell id="dp8s6cwn2FolOlBTgPiy-17" value="have" style="shape=rhombus;perimeter=rhombusPerimeter;whiteSpace=wrap;html=1;align=center;fillColor=#fa6800;fontColor=#000000;strokeColor=#C73500;" parent="1" vertex="1">
                    <mxGeometry x="-80" y="-50" width="100" height="40" as="geometry"/>
                </mxCell>
                <mxCell id="dp8s6cwn2FolOlBTgPiy-20" value="" style="edgeStyle=entityRelationEdgeStyle;fontSize=12;html=1;endArrow=ERone;endFill=1;rounded=0;entryX=1;entryY=0.5;entryDx=0;entryDy=0;exitX=0;exitY=0.5;exitDx=0;exitDy=0;" parent="1" source="dp8s6cwn2FolOlBTgPiy-17" target="dp8s6cwn2FolOlBTgPiy-1" edge="1">
                    <mxGeometry width="100" height="100" relative="1" as="geometry">
                        <mxPoint x="280" y="320" as="sourcePoint"/>
                        <mxPoint x="380" y="220" as="targetPoint"/>
                        <Array as="points">
                            <mxPoint x="-70" y="-20"/>
                        </Array>
                    </mxGeometry>
                </mxCell>
                <mxCell id="dp8s6cwn2FolOlBTgPiy-21" value="" style="edgeStyle=entityRelationEdgeStyle;fontSize=12;html=1;endArrow=ERoneToMany;rounded=0;entryX=0;entryY=0.5;entryDx=0;entryDy=0;exitX=1;exitY=0.5;exitDx=0;exitDy=0;" parent="1" source="dp8s6cwn2FolOlBTgPiy-17" target="dp8s6cwn2FolOlBTgPiy-6" edge="1">
                    <mxGeometry width="100" height="100" relative="1" as="geometry">
                        <mxPoint x="280" y="320" as="sourcePoint"/>
                        <mxPoint x="380" y="220" as="targetPoint"/>
                        <Array as="points">
                            <mxPoint x="30" y="120"/>
                        </Array>
                    </mxGeometry>
                </mxCell>
                <mxCell id="dp8s6cwn2FolOlBTgPiy-24" value="" style="edgeStyle=entityRelationEdgeStyle;fontSize=12;html=1;endArrow=ERone;endFill=1;rounded=0;exitX=1;exitY=0.5;exitDx=0;exitDy=0;entryX=0;entryY=0.75;entryDx=0;entryDy=0;" parent="1" source="dp8s6cwn2FolOlBTgPiy-28" target="dp8s6cwn2FolOlBTgPiy-6" edge="1">
                    <mxGeometry width="100" height="100" relative="1" as="geometry">
                        <mxPoint x="230" y="420" as="sourcePoint"/>
                        <mxPoint x="80" y="370" as="targetPoint"/>
                        <Array as="points">
                            <mxPoint x="270" y="-100"/>
                            <mxPoint x="230" y="100"/>
                        </Array>
                    </mxGeometry>
                </mxCell>
                <mxCell id="dp8s6cwn2FolOlBTgPiy-25" value="have" style="shape=rhombus;perimeter=rhombusPerimeter;whiteSpace=wrap;html=1;align=center;fillColor=#fa6800;fontColor=#000000;strokeColor=#C73500;" parent="1" vertex="1">
                    <mxGeometry x="-100" y="130" width="100" height="40" as="geometry"/>
                </mxCell>
                <mxCell id="dp8s6cwn2FolOlBTgPiy-26" value="" style="edgeStyle=entityRelationEdgeStyle;fontSize=12;html=1;endArrow=ERoneToMany;rounded=0;entryX=0;entryY=0.25;entryDx=0;entryDy=0;exitX=1;exitY=0.5;exitDx=0;exitDy=0;" parent="1" source="dp8s6cwn2FolOlBTgPiy-25" target="dp8s6cwn2FolOlBTgPiy-6" edge="1">
                    <mxGeometry width="100" height="100" relative="1" as="geometry">
                        <mxPoint x="30" y="-20" as="sourcePoint"/>
                        <mxPoint x="110" y="-20" as="targetPoint"/>
                        <Array as="points">
                            <mxPoint x="40" y="130"/>
                        </Array>
                    </mxGeometry>
                </mxCell>
                <mxCell id="dp8s6cwn2FolOlBTgPiy-28" value="have" style="shape=rhombus;perimeter=rhombusPerimeter;whiteSpace=wrap;html=1;align=center;fillColor=#fa6800;fontColor=#000000;strokeColor=#C73500;" parent="1" vertex="1">
                    <mxGeometry x="-100" y="490" width="100" height="40" as="geometry"/>
                </mxCell>
                <mxCell id="Irhi_nm9dFEaQY86UJpq-2" value="" style="edgeStyle=entityRelationEdgeStyle;fontSize=12;html=1;endArrow=ERone;endFill=1;rounded=0;entryX=1;entryY=0.5;entryDx=0;entryDy=0;exitX=0;exitY=0.5;exitDx=0;exitDy=0;" parent="1" source="dp8s6cwn2FolOlBTgPiy-25" target="dp8s6cwn2FolOlBTgPiy-2" edge="1">
                    <mxGeometry width="100" height="100" relative="1" as="geometry">
                        <mxPoint x="-70" y="-20" as="sourcePoint"/>
                        <mxPoint x="-160" y="-20" as="targetPoint"/>
                        <Array as="points">
                            <mxPoint x="-60" y="-10"/>
                            <mxPoint x="-130" y="140"/>
                        </Array>
                    </mxGeometry>
                </mxCell>
                <mxCell id="Irhi_nm9dFEaQY86UJpq-3" value="" style="edgeStyle=entityRelationEdgeStyle;fontSize=12;html=1;endArrow=ERone;endFill=1;rounded=0;entryX=1;entryY=0.5;entryDx=0;entryDy=0;exitX=0;exitY=0.5;exitDx=0;exitDy=0;" parent="1" source="Irhi_nm9dFEaQY86UJpq-4" target="dp8s6cwn2FolOlBTgPiy-3" edge="1">
                    <mxGeometry width="100" height="100" relative="1" as="geometry">
                        <mxPoint x="-60" y="-10" as="sourcePoint"/>
                        <mxPoint x="-150" y="-10" as="targetPoint"/>
                        <Array as="points">
                            <mxPoint x="-50"/>
                        </Array>
                    </mxGeometry>
                </mxCell>
                <mxCell id="Irhi_nm9dFEaQY86UJpq-4" value="have" style="shape=rhombus;perimeter=rhombusPerimeter;whiteSpace=wrap;html=1;align=center;fillColor=#fa6800;fontColor=#000000;strokeColor=#C73500;" parent="1" vertex="1">
                    <mxGeometry x="-100" y="310" width="100" height="40" as="geometry"/>
                </mxCell>
                <mxCell id="Irhi_nm9dFEaQY86UJpq-5" value="" style="edgeStyle=entityRelationEdgeStyle;fontSize=12;html=1;endArrow=ERoneToMany;rounded=0;exitX=1;exitY=0.5;exitDx=0;exitDy=0;" parent="1" source="Irhi_nm9dFEaQY86UJpq-4" edge="1">
                    <mxGeometry width="100" height="100" relative="1" as="geometry">
                        <mxPoint x="10" y="160" as="sourcePoint"/>
                        <mxPoint x="100" y="-30" as="targetPoint"/>
                        <Array as="points">
                            <mxPoint x="50" y="140"/>
                        </Array>
                    </mxGeometry>
                </mxCell>
                <mxCell id="Irhi_nm9dFEaQY86UJpq-6" value="" style="edgeStyle=entityRelationEdgeStyle;fontSize=12;html=1;endArrow=ERoneToMany;rounded=0;exitX=0;exitY=0.5;exitDx=0;exitDy=0;entryX=1;entryY=0.5;entryDx=0;entryDy=0;" parent="1" source="dp8s6cwn2FolOlBTgPiy-28" target="dp8s6cwn2FolOlBTgPiy-4" edge="1">
                    <mxGeometry width="100" height="100" relative="1" as="geometry">
                        <mxPoint x="-160" y="580" as="sourcePoint"/>
                        <mxPoint x="-60" y="220" as="targetPoint"/>
                        <Array as="points">
                            <mxPoint x="-110" y="390"/>
                        </Array>
                    </mxGeometry>
                </mxCell>
                <mxCell id="Irhi_nm9dFEaQY86UJpq-7" value="" style="edgeStyle=entityRelationEdgeStyle;fontSize=12;html=1;endArrow=ERone;endFill=1;rounded=0;exitX=1;exitY=0.5;exitDx=0;exitDy=0;entryX=0;entryY=0.5;entryDx=0;entryDy=0;" parent="1" source="dp8s6cwn2FolOlBTgPiy-28" target="dp8s6cwn2FolOlBTgPiy-7" edge="1">
                    <mxGeometry width="100" height="100" relative="1" as="geometry">
                        <mxPoint x="10" y="520" as="sourcePoint"/>
                        <mxPoint x="110" y="-10" as="targetPoint"/>
                        <Array as="points">
                            <mxPoint x="280" y="-90"/>
                            <mxPoint x="240" y="110"/>
                        </Array>
                    </mxGeometry>
                </mxCell>
                <mxCell id="Irhi_nm9dFEaQY86UJpq-8" value="have" style="shape=rhombus;perimeter=rhombusPerimeter;whiteSpace=wrap;html=1;align=center;rotation=0;fillColor=#fa6800;fontColor=#000000;strokeColor=#C73500;" parent="1" vertex="1">
                    <mxGeometry x="-110" y="600" width="100" height="40" as="geometry"/>
                </mxCell>
                <mxCell id="Irhi_nm9dFEaQY86UJpq-9" value="" style="edgeStyle=entityRelationEdgeStyle;fontSize=12;html=1;endArrow=ERoneToMany;rounded=0;exitX=0;exitY=0.5;exitDx=0;exitDy=0;entryX=1;entryY=0.75;entryDx=0;entryDy=0;" parent="1" source="Irhi_nm9dFEaQY86UJpq-8" target="dp8s6cwn2FolOlBTgPiy-4" edge="1">
                    <mxGeometry width="100" height="100" relative="1" as="geometry">
                        <mxPoint x="-90" y="520" as="sourcePoint"/>
                        <mxPoint x="-160" y="520" as="targetPoint"/>
                        <Array as="points">
                            <mxPoint x="-100" y="400"/>
                            <mxPoint x="-120" y="550"/>
                            <mxPoint x="-130" y="600"/>
                            <mxPoint x="-120" y="540"/>
                        </Array>
                    </mxGeometry>
                </mxCell>
                <mxCell id="Irhi_nm9dFEaQY86UJpq-10" value="" style="fontSize=12;html=1;endArrow=ERone;rounded=0;entryX=1;entryY=0.5;entryDx=0;entryDy=0;endFill=0;" parent="1" target="dp8s6cwn2FolOlBTgPiy-5" edge="1">
                    <mxGeometry width="100" height="100" relative="1" as="geometry">
                        <mxPoint x="-60" y="640" as="sourcePoint"/>
                        <mxPoint x="-170" y="725" as="targetPoint"/>
                    </mxGeometry>
                </mxCell>
                <mxCell id="Irhi_nm9dFEaQY86UJpq-12" value="have" style="shape=rhombus;perimeter=rhombusPerimeter;whiteSpace=wrap;html=1;align=center;fillColor=#fa6800;fontColor=#000000;strokeColor=#C73500;" parent="1" vertex="1">
                    <mxGeometry x="100" y="550" width="100" height="40" as="geometry"/>
                </mxCell>
                <mxCell id="Irhi_nm9dFEaQY86UJpq-13" value="" style="edgeStyle=orthogonalEdgeStyle;fontSize=12;html=1;endArrow=ERoneToMany;rounded=0;exitX=1;exitY=0.5;exitDx=0;exitDy=0;entryX=1;entryY=0.75;entryDx=0;entryDy=0;" parent="1" source="Irhi_nm9dFEaQY86UJpq-12" target="dp8s6cwn2FolOlBTgPiy-7" edge="1">
                    <mxGeometry width="100" height="100" relative="1" as="geometry">
                        <mxPoint x="161" y="379" as="sourcePoint"/>
                        <mxPoint x="221" y="260" as="targetPoint"/>
                        <Array as="points">
                            <mxPoint x="390" y="570"/>
                            <mxPoint x="390" y="300"/>
                        </Array>
                    </mxGeometry>
                </mxCell>
                <mxCell id="Irhi_nm9dFEaQY86UJpq-14" value="" style="edgeStyle=orthogonalEdgeStyle;fontSize=12;html=1;endArrow=ERoneToMany;rounded=0;exitX=0;exitY=0.5;exitDx=0;exitDy=0;entryX=0;entryY=0.25;entryDx=0;entryDy=0;" parent="1" source="Irhi_nm9dFEaQY86UJpq-12" target="dp8s6cwn2FolOlBTgPiy-8" edge="1">
                    <mxGeometry width="100" height="100" relative="1" as="geometry">
                        <mxPoint x="192" y="380" as="sourcePoint"/>
                        <mxPoint x="117" y="560" as="targetPoint"/>
                    </mxGeometry>
                </mxCell>
                <mxCell id="Irhi_nm9dFEaQY86UJpq-15" value="" style="edgeStyle=entityRelationEdgeStyle;fontSize=12;html=1;endArrow=ERone;endFill=1;rounded=0;entryX=1;entryY=0.5;entryDx=0;entryDy=0;exitX=0;exitY=0.5;exitDx=0;exitDy=0;" parent="1" source="dp8s6cwn2FolOlBTgPiy-16" target="dp8s6cwn2FolOlBTgPiy-6" edge="1">
                    <mxGeometry width="100" height="100" relative="1" as="geometry">
                        <mxPoint x="-90" y="340" as="sourcePoint"/>
                        <mxPoint x="-160" y="340" as="targetPoint"/>
                        <Array as="points">
                            <mxPoint x="-40" y="10"/>
                        </Array>
                    </mxGeometry>
                </mxCell>
                <mxCell id="Irhi_nm9dFEaQY86UJpq-16" value="" style="edgeStyle=entityRelationEdgeStyle;fontSize=12;html=1;endArrow=ERoneToMany;rounded=0;entryX=0;entryY=0.5;entryDx=0;entryDy=0;" parent="1" target="dp8s6cwn2FolOlBTgPiy-9" edge="1">
                    <mxGeometry width="100" height="100" relative="1" as="geometry">
                        <mxPoint x="370" y="-30" as="sourcePoint"/>
                        <mxPoint x="110" y="-20" as="targetPoint"/>
                        <Array as="points">
                            <mxPoint x="40" y="130"/>
                        </Array>
                    </mxGeometry>
                </mxCell>
                <mxCell id="Irhi_nm9dFEaQY86UJpq-17" value="" style="edgeStyle=entityRelationEdgeStyle;fontSize=12;html=1;endArrow=ERoneToMany;rounded=0;entryX=0;entryY=0.5;entryDx=0;entryDy=0;exitX=1;exitY=0.5;exitDx=0;exitDy=0;" parent="1" source="dp8s6cwn2FolOlBTgPiy-16" target="dp8s6cwn2FolOlBTgPiy-10" edge="1">
                    <mxGeometry width="100" height="100" relative="1" as="geometry">
                        <mxPoint x="380" y="-20" as="sourcePoint"/>
                        <mxPoint x="450" y="-20" as="targetPoint"/>
                        <Array as="points">
                            <mxPoint x="50" y="140"/>
                        </Array>
                    </mxGeometry>
                </mxCell>
                <mxCell id="Irhi_nm9dFEaQY86UJpq-18" value="" style="edgeStyle=entityRelationEdgeStyle;fontSize=12;html=1;endArrow=ERoneToMany;rounded=0;entryX=0;entryY=0.25;entryDx=0;entryDy=0;exitX=1;exitY=0.5;exitDx=0;exitDy=0;" parent="1" source="Irhi_nm9dFEaQY86UJpq-19" target="dp8s6cwn2FolOlBTgPiy-10" edge="1">
                    <mxGeometry width="100" height="100" relative="1" as="geometry">
                        <mxPoint x="370" y="240" as="sourcePoint"/>
                        <mxPoint x="450" y="-20" as="targetPoint"/>
                        <Array as="points">
                            <mxPoint x="50" y="140"/>
                        </Array>
                    </mxGeometry>
                </mxCell>
                <mxCell id="Irhi_nm9dFEaQY86UJpq-19" value="have" style="shape=rhombus;perimeter=rhombusPerimeter;whiteSpace=wrap;html=1;align=center;fillColor=#fa6800;fontColor=#000000;strokeColor=#C73500;" parent="1" vertex="1">
                    <mxGeometry x="440" y="240" width="100" height="40" as="geometry"/>
                </mxCell>
                <mxCell id="Irhi_nm9dFEaQY86UJpq-20" value="" style="edgeStyle=entityRelationEdgeStyle;fontSize=12;html=1;endArrow=ERone;endFill=1;rounded=0;entryX=1;entryY=0.25;entryDx=0;entryDy=0;exitX=0;exitY=0.5;exitDx=0;exitDy=0;" parent="1" source="Irhi_nm9dFEaQY86UJpq-19" target="dp8s6cwn2FolOlBTgPiy-7" edge="1">
                    <mxGeometry width="100" height="100" relative="1" as="geometry">
                        <mxPoint x="280" y="-20" as="sourcePoint"/>
                        <mxPoint x="210" y="-20" as="targetPoint"/>
                        <Array as="points">
                            <mxPoint x="-30" y="20"/>
                        </Array>
                    </mxGeometry>
                </mxCell>
                <mxCell id="Irhi_nm9dFEaQY86UJpq-21" value="" style="edgeStyle=orthogonalEdgeStyle;fontSize=12;html=1;endArrow=ERoneToMany;rounded=0;entryX=0;entryY=0.5;entryDx=0;entryDy=0;exitX=0.5;exitY=1;exitDx=0;exitDy=0;" parent="1" source="Irhi_nm9dFEaQY86UJpq-19" target="dp8s6cwn2FolOlBTgPiy-13" edge="1">
                    <mxGeometry width="100" height="100" relative="1" as="geometry">
                        <mxPoint x="345" y="350" as="sourcePoint"/>
                        <mxPoint x="860" y="440" as="targetPoint"/>
                        <Array as="points">
                            <mxPoint x="490" y="470"/>
                            <mxPoint x="1140" y="470"/>
                            <mxPoint x="1140" y="320"/>
                        </Array>
                    </mxGeometry>
                </mxCell>
                <mxCell id="Irhi_nm9dFEaQY86UJpq-22" value="" style="edgeStyle=orthogonalEdgeStyle;fontSize=12;html=1;endArrow=ERoneToMany;rounded=0;" parent="1" target="dp8s6cwn2FolOlBTgPiy-14" edge="1">
                    <mxGeometry width="100" height="100" relative="1" as="geometry">
                        <mxPoint x="410" y="260" as="sourcePoint"/>
                        <mxPoint x="1030" y="460" as="targetPoint"/>
                        <Array as="points">
                            <mxPoint x="410" y="510"/>
                        </Array>
                    </mxGeometry>
                </mxCell>
                <mxCell id="Irhi_nm9dFEaQY86UJpq-23" value="" style="edgeStyle=entityRelationEdgeStyle;fontSize=12;html=1;endArrow=ERoneToMany;rounded=0;entryX=1;entryY=0.5;entryDx=0;entryDy=0;exitX=0;exitY=0.5;exitDx=0;exitDy=0;" parent="1" source="dp8s6cwn2FolOlBTgPiy-15" target="dp8s6cwn2FolOlBTgPiy-9" edge="1">
                    <mxGeometry width="100" height="100" relative="1" as="geometry">
                        <mxPoint x="380" y="-20" as="sourcePoint"/>
                        <mxPoint x="450" y="-20" as="targetPoint"/>
                        <Array as="points">
                            <mxPoint x="50" y="140"/>
                        </Array>
                    </mxGeometry>
                </mxCell>
                <mxCell id="Irhi_nm9dFEaQY86UJpq-24" value="" style="edgeStyle=entityRelationEdgeStyle;fontSize=12;html=1;endArrow=ERone;endFill=1;rounded=0;entryX=0;entryY=0.5;entryDx=0;entryDy=0;exitX=1;exitY=0.5;exitDx=0;exitDy=0;" parent="1" source="dp8s6cwn2FolOlBTgPiy-15" target="dp8s6cwn2FolOlBTgPiy-11" edge="1">
                    <mxGeometry width="100" height="100" relative="1" as="geometry">
                        <mxPoint x="280" y="-20" as="sourcePoint"/>
                        <mxPoint x="210" y="-20" as="targetPoint"/>
                        <Array as="points">
                            <mxPoint x="-30" y="20"/>
                        </Array>
                    </mxGeometry>
                </mxCell>
                <mxCell id="Irhi_nm9dFEaQY86UJpq-25" value="" style="edgeStyle=orthogonalEdgeStyle;fontSize=12;html=1;endArrow=ERoneToMany;rounded=0;entryX=1;entryY=0.25;entryDx=0;entryDy=0;" parent="1" source="Irhi_nm9dFEaQY86UJpq-26" target="dp8s6cwn2FolOlBTgPiy-10" edge="1">
                    <mxGeometry width="100" height="100" relative="1" as="geometry">
                        <mxPoint x="660" y="-20" as="sourcePoint"/>
                        <mxPoint x="550" y="-20" as="targetPoint"/>
                        <Array as="points">
                            <mxPoint x="850" y="160"/>
                            <mxPoint x="850" y="270"/>
                        </Array>
                    </mxGeometry>
                </mxCell>
                <mxCell id="Irhi_nm9dFEaQY86UJpq-26" value="have" style="shape=rhombus;perimeter=rhombusPerimeter;whiteSpace=wrap;html=1;align=center;fillColor=#fa6800;fontColor=#000000;strokeColor=#C73500;" parent="1" vertex="1">
                    <mxGeometry x="870" y="140" width="100" height="40" as="geometry"/>
                </mxCell>
                <mxCell id="Irhi_nm9dFEaQY86UJpq-27" value="" style="edgeStyle=entityRelationEdgeStyle;fontSize=12;html=1;endArrow=ERone;endFill=1;rounded=0;entryX=0;entryY=0.5;entryDx=0;entryDy=0;exitX=1;exitY=0.5;exitDx=0;exitDy=0;" parent="1" source="Irhi_nm9dFEaQY86UJpq-26" target="dp8s6cwn2FolOlBTgPiy-12" edge="1">
                    <mxGeometry width="100" height="100" relative="1" as="geometry">
                        <mxPoint x="760" y="-20" as="sourcePoint"/>
                        <mxPoint x="870" y="-20" as="targetPoint"/>
                        <Array as="points">
                            <mxPoint x="-20" y="30"/>
                        </Array>
                    </mxGeometry>
                </mxCell>
                <mxCell id="Irhi_nm9dFEaQY86UJpq-28" value="have" style="shape=rhombus;perimeter=rhombusPerimeter;whiteSpace=wrap;html=1;align=center;fillColor=#fa6800;fontColor=#000000;strokeColor=#C73500;" parent="1" vertex="1">
                    <mxGeometry x="890" y="250" width="100" height="40" as="geometry"/>
                </mxCell>
                <mxCell id="Irhi_nm9dFEaQY86UJpq-29" value="" style="edgeStyle=orthogonalEdgeStyle;fontSize=12;html=1;endArrow=ERone;endFill=1;rounded=0;entryX=1;entryY=0.5;entryDx=0;entryDy=0;exitX=0;exitY=0.5;exitDx=0;exitDy=0;" parent="1" source="Irhi_nm9dFEaQY86UJpq-28" target="dp8s6cwn2FolOlBTgPiy-10" edge="1">
                    <mxGeometry width="100" height="100" relative="1" as="geometry">
                        <mxPoint x="610" y="300" as="sourcePoint"/>
                        <mxPoint x="870" y="160" as="targetPoint"/>
                        <Array as="points">
                            <mxPoint x="880" y="270"/>
                            <mxPoint x="880" y="330"/>
                            <mxPoint x="760" y="330"/>
                            <mxPoint x="760" y="280"/>
                        </Array>
                    </mxGeometry>
                </mxCell>
                <mxCell id="Irhi_nm9dFEaQY86UJpq-30" value="" style="edgeStyle=entityRelationEdgeStyle;fontSize=12;html=1;endArrow=ERoneToMany;rounded=0;entryX=0;entryY=0.25;entryDx=0;entryDy=0;exitX=1;exitY=0.5;exitDx=0;exitDy=0;" parent="1" source="Irhi_nm9dFEaQY86UJpq-28" target="dp8s6cwn2FolOlBTgPiy-13" edge="1">
                    <mxGeometry width="100" height="100" relative="1" as="geometry">
                        <mxPoint x="660" y="160" as="sourcePoint"/>
                        <mxPoint x="550" y="280" as="targetPoint"/>
                        <Array as="points">
                            <mxPoint x="70" y="160"/>
                        </Array>
                    </mxGeometry>
                </mxCell>
                <mxCell id="Irhi_nm9dFEaQY86UJpq-31" value="Catagory_id" style="ellipse;whiteSpace=wrap;html=1;align=center;fontStyle=4;fillColor=#ffe6cc;strokeColor=#d79b00;fontColor=#000000;" parent="1" vertex="1">
                    <mxGeometry x="-320" y="-140" width="100" height="40" as="geometry"/>
                </mxCell>
                <mxCell id="Irhi_nm9dFEaQY86UJpq-33" value="" style="endArrow=none;html=1;rounded=0;entryX=0.25;entryY=0;entryDx=0;entryDy=0;exitX=0.5;exitY=1;exitDx=0;exitDy=0;" parent="1" source="Irhi_nm9dFEaQY86UJpq-31" target="dp8s6cwn2FolOlBTgPiy-1" edge="1">
                    <mxGeometry relative="1" as="geometry">
                        <mxPoint x="260" y="130" as="sourcePoint"/>
                        <mxPoint x="420" y="130" as="targetPoint"/>
                    </mxGeometry>
                </mxCell>
                <mxCell id="Irhi_nm9dFEaQY86UJpq-34" value="Catagory_name" style="ellipse;whiteSpace=wrap;html=1;align=center;" parent="1" vertex="1">
                    <mxGeometry x="-210" y="-140" width="100" height="40" as="geometry"/>
                </mxCell>
                <mxCell id="Irhi_nm9dFEaQY86UJpq-36" value="" style="endArrow=none;html=1;rounded=0;entryX=0.75;entryY=0;entryDx=0;entryDy=0;exitX=0.5;exitY=1;exitDx=0;exitDy=0;" parent="1" source="Irhi_nm9dFEaQY86UJpq-34" target="dp8s6cwn2FolOlBTgPiy-1" edge="1">
                    <mxGeometry relative="1" as="geometry">
                        <mxPoint x="-260" y="-90" as="sourcePoint"/>
                        <mxPoint x="-235" y="-40" as="targetPoint"/>
                    </mxGeometry>
                </mxCell>
                <mxCell id="Irhi_nm9dFEaQY86UJpq-37" value="Publisher_id" style="ellipse;whiteSpace=wrap;html=1;align=center;fontStyle=4;fillColor=#ffe6cc;strokeColor=#d79b00;fontColor=#000000;" parent="1" vertex="1">
                    <mxGeometry x="-320" y="50" width="100" height="40" as="geometry"/>
                </mxCell>
                <mxCell id="Irhi_nm9dFEaQY86UJpq-38" value="Publisher_name" style="ellipse;whiteSpace=wrap;html=1;align=center;" parent="1" vertex="1">
                    <mxGeometry x="-200" y="50" width="100" height="40" as="geometry"/>
                </mxCell>
                <mxCell id="Irhi_nm9dFEaQY86UJpq-39" value="Publisher_laguage" style="ellipse;whiteSpace=wrap;html=1;align=center;" parent="1" vertex="1">
                    <mxGeometry x="-380" y="100" width="100" height="40" as="geometry"/>
                </mxCell>
                <mxCell id="Irhi_nm9dFEaQY86UJpq-40" value="Publisher_type" style="ellipse;whiteSpace=wrap;html=1;align=center;" parent="1" vertex="1">
                    <mxGeometry x="-370" y="180" width="100" height="40" as="geometry"/>
                </mxCell>
                <mxCell id="Irhi_nm9dFEaQY86UJpq-45" value="" style="endArrow=none;html=1;rounded=0;entryX=0.25;entryY=0;entryDx=0;entryDy=0;exitX=0.5;exitY=1;exitDx=0;exitDy=0;" parent="1" source="Irhi_nm9dFEaQY86UJpq-37" target="dp8s6cwn2FolOlBTgPiy-2" edge="1">
                    <mxGeometry relative="1" as="geometry">
                        <mxPoint x="-260" y="-90" as="sourcePoint"/>
                        <mxPoint x="-235" y="-40" as="targetPoint"/>
                    </mxGeometry>
                </mxCell>
                <mxCell id="Irhi_nm9dFEaQY86UJpq-46" value="" style="endArrow=none;html=1;rounded=0;entryX=0;entryY=0.25;entryDx=0;entryDy=0;exitX=0.5;exitY=1;exitDx=0;exitDy=0;" parent="1" source="Irhi_nm9dFEaQY86UJpq-39" target="dp8s6cwn2FolOlBTgPiy-2" edge="1">
                    <mxGeometry relative="1" as="geometry">
                        <mxPoint x="-260" y="100" as="sourcePoint"/>
                        <mxPoint x="-235" y="140" as="targetPoint"/>
                    </mxGeometry>
                </mxCell>
                <mxCell id="Irhi_nm9dFEaQY86UJpq-47" value="" style="endArrow=none;html=1;rounded=0;entryX=0;entryY=0.75;entryDx=0;entryDy=0;exitX=0.5;exitY=0;exitDx=0;exitDy=0;" parent="1" source="Irhi_nm9dFEaQY86UJpq-40" target="dp8s6cwn2FolOlBTgPiy-2" edge="1">
                    <mxGeometry relative="1" as="geometry">
                        <mxPoint x="-250" y="110" as="sourcePoint"/>
                        <mxPoint x="-225" y="150" as="targetPoint"/>
                    </mxGeometry>
                </mxCell>
                <mxCell id="Irhi_nm9dFEaQY86UJpq-48" value="" style="endArrow=none;html=1;rounded=0;entryX=0.5;entryY=0;entryDx=0;entryDy=0;exitX=0;exitY=1;exitDx=0;exitDy=0;" parent="1" source="Irhi_nm9dFEaQY86UJpq-38" target="dp8s6cwn2FolOlBTgPiy-2" edge="1">
                    <mxGeometry relative="1" as="geometry">
                        <mxPoint x="-240" y="120" as="sourcePoint"/>
                        <mxPoint x="-215" y="160" as="targetPoint"/>
                    </mxGeometry>
                </mxCell>
                <mxCell id="Irhi_nm9dFEaQY86UJpq-49" value="Location_id" style="ellipse;whiteSpace=wrap;html=1;align=center;fontStyle=4;fillColor=#ffe6cc;strokeColor=#d79b00;fontColor=#000000;" parent="1" vertex="1">
                    <mxGeometry x="-300" y="230" width="100" height="40" as="geometry"/>
                </mxCell>
                <mxCell id="Irhi_nm9dFEaQY86UJpq-50" value="Shelf_no" style="ellipse;whiteSpace=wrap;html=1;align=center;" parent="1" vertex="1">
                    <mxGeometry x="-190" y="230" width="100" height="40" as="geometry"/>
                </mxCell>
                <mxCell id="Irhi_nm9dFEaQY86UJpq-51" value="Shelf_name" style="ellipse;whiteSpace=wrap;html=1;align=center;" parent="1" vertex="1">
                    <mxGeometry x="-390" y="280" width="100" height="40" as="geometry"/>
                </mxCell>
                <mxCell id="Irhi_nm9dFEaQY86UJpq-52" value="Floor_no" style="ellipse;whiteSpace=wrap;html=1;align=center;" parent="1" vertex="1">
                    <mxGeometry x="-390" y="350" width="100" height="40" as="geometry"/>
                </mxCell>
                <mxCell id="Irhi_nm9dFEaQY86UJpq-53" value="" style="endArrow=none;html=1;rounded=0;entryX=0.25;entryY=0;entryDx=0;entryDy=0;exitX=0.5;exitY=1;exitDx=0;exitDy=0;" parent="1" source="Irhi_nm9dFEaQY86UJpq-49" target="dp8s6cwn2FolOlBTgPiy-3" edge="1">
                    <mxGeometry relative="1" as="geometry">
                        <mxPoint x="-310" y="190" as="sourcePoint"/>
                        <mxPoint x="-260" y="170" as="targetPoint"/>
                    </mxGeometry>
                </mxCell>
                <mxCell id="Irhi_nm9dFEaQY86UJpq-54" value="" style="endArrow=none;html=1;rounded=0;entryX=0.5;entryY=0;entryDx=0;entryDy=0;exitX=0;exitY=1;exitDx=0;exitDy=0;" parent="1" source="Irhi_nm9dFEaQY86UJpq-50" target="dp8s6cwn2FolOlBTgPiy-3" edge="1">
                    <mxGeometry relative="1" as="geometry">
                        <mxPoint x="-240" y="280" as="sourcePoint"/>
                        <mxPoint x="-235" y="320" as="targetPoint"/>
                    </mxGeometry>
                </mxCell>
                <mxCell id="Irhi_nm9dFEaQY86UJpq-55" value="" style="endArrow=none;html=1;rounded=0;entryX=0;entryY=0.5;entryDx=0;entryDy=0;exitX=1;exitY=1;exitDx=0;exitDy=0;" parent="1" source="Irhi_nm9dFEaQY86UJpq-51" target="dp8s6cwn2FolOlBTgPiy-3" edge="1">
                    <mxGeometry relative="1" as="geometry">
                        <mxPoint x="-230" y="290" as="sourcePoint"/>
                        <mxPoint x="-225" y="330" as="targetPoint"/>
                    </mxGeometry>
                </mxCell>
                <mxCell id="Irhi_nm9dFEaQY86UJpq-56" value="" style="endArrow=none;html=1;rounded=0;entryX=0;entryY=1;entryDx=0;entryDy=0;exitX=1;exitY=0.5;exitDx=0;exitDy=0;" parent="1" source="Irhi_nm9dFEaQY86UJpq-52" target="dp8s6cwn2FolOlBTgPiy-3" edge="1">
                    <mxGeometry relative="1" as="geometry">
                        <mxPoint x="-220" y="300" as="sourcePoint"/>
                        <mxPoint x="-215" y="340" as="targetPoint"/>
                    </mxGeometry>
                </mxCell>
                <mxCell id="Irhi_nm9dFEaQY86UJpq-57" value="Request_id" style="ellipse;whiteSpace=wrap;html=1;align=center;fontStyle=4;fillColor=#ffe6cc;strokeColor=#d79b00;fontColor=#000000;" parent="1" vertex="1">
                    <mxGeometry x="-390" y="440" width="100" height="40" as="geometry"/>
                </mxCell>
                <mxCell id="Irhi_nm9dFEaQY86UJpq-58" value="Book_id" style="ellipse;whiteSpace=wrap;html=1;align=center;" parent="1" vertex="1">
                    <mxGeometry x="-280" y="410" width="100" height="40" as="geometry"/>
                </mxCell>
                <mxCell id="Irhi_nm9dFEaQY86UJpq-59" value="Member_id" style="ellipse;whiteSpace=wrap;html=1;align=center;" parent="1" vertex="1">
                    <mxGeometry x="-160" y="420" width="100" height="40" as="geometry"/>
                </mxCell>
                <mxCell id="Irhi_nm9dFEaQY86UJpq-60" value="Request_date" style="ellipse;whiteSpace=wrap;html=1;align=center;" parent="1" vertex="1">
                    <mxGeometry x="-380" y="530" width="100" height="40" as="geometry"/>
                </mxCell>
                <mxCell id="Irhi_nm9dFEaQY86UJpq-61" value="Available_status_id" style="ellipse;whiteSpace=wrap;html=1;align=center;" parent="1" vertex="1">
                    <mxGeometry x="-290" y="580" width="100" height="40" as="geometry"/>
                </mxCell>
                <mxCell id="Irhi_nm9dFEaQY86UJpq-62" value="" style="endArrow=none;html=1;rounded=0;exitX=0.5;exitY=1;exitDx=0;exitDy=0;" parent="1" source="Irhi_nm9dFEaQY86UJpq-58" target="dp8s6cwn2FolOlBTgPiy-4" edge="1">
                    <mxGeometry relative="1" as="geometry">
                        <mxPoint x="-295" y="324" as="sourcePoint"/>
                        <mxPoint x="-260" y="340" as="targetPoint"/>
                    </mxGeometry>
                </mxCell>
                <mxCell id="Irhi_nm9dFEaQY86UJpq-63" value="" style="endArrow=none;html=1;rounded=0;exitX=0;exitY=1;exitDx=0;exitDy=0;entryX=0.75;entryY=0;entryDx=0;entryDy=0;" parent="1" source="Irhi_nm9dFEaQY86UJpq-59" target="dp8s6cwn2FolOlBTgPiy-4" edge="1">
                    <mxGeometry relative="1" as="geometry">
                        <mxPoint x="-220" y="460" as="sourcePoint"/>
                        <mxPoint x="-200" y="490" as="targetPoint"/>
                    </mxGeometry>
                </mxCell>
                <mxCell id="Irhi_nm9dFEaQY86UJpq-64" value="" style="endArrow=none;html=1;rounded=0;exitX=1;exitY=0.5;exitDx=0;exitDy=0;entryX=0.25;entryY=0;entryDx=0;entryDy=0;" parent="1" source="Irhi_nm9dFEaQY86UJpq-57" target="dp8s6cwn2FolOlBTgPiy-4" edge="1">
                    <mxGeometry relative="1" as="geometry">
                        <mxPoint x="-210" y="470" as="sourcePoint"/>
                        <mxPoint x="-203" y="510" as="targetPoint"/>
                    </mxGeometry>
                </mxCell>
                <mxCell id="Irhi_nm9dFEaQY86UJpq-65" value="" style="endArrow=none;html=1;rounded=0;exitX=1;exitY=0.5;exitDx=0;exitDy=0;entryX=0;entryY=1;entryDx=0;entryDy=0;" parent="1" source="Irhi_nm9dFEaQY86UJpq-60" target="dp8s6cwn2FolOlBTgPiy-4" edge="1">
                    <mxGeometry relative="1" as="geometry">
                        <mxPoint x="-200" y="480" as="sourcePoint"/>
                        <mxPoint x="-193" y="520" as="targetPoint"/>
                    </mxGeometry>
                </mxCell>
                <mxCell id="Irhi_nm9dFEaQY86UJpq-66" value="" style="endArrow=none;html=1;rounded=0;exitX=0.5;exitY=1;exitDx=0;exitDy=0;" parent="1" source="dp8s6cwn2FolOlBTgPiy-4" edge="1">
                    <mxGeometry relative="1" as="geometry">
                        <mxPoint x="-190" y="490" as="sourcePoint"/>
                        <mxPoint x="-240" y="580" as="targetPoint"/>
                    </mxGeometry>
                </mxCell>
                <mxCell id="Irhi_nm9dFEaQY86UJpq-68" value="Availble_status_id" style="ellipse;whiteSpace=wrap;html=1;align=center;fontStyle=4;fillColor=#ffe6cc;strokeColor=#d79b00;fontColor=#000000;" parent="1" vertex="1">
                    <mxGeometry x="-380" y="640" width="100" height="40" as="geometry"/>
                </mxCell>
                <mxCell id="Irhi_nm9dFEaQY86UJpq-69" value="Available_status" style="ellipse;whiteSpace=wrap;html=1;align=center;" parent="1" vertex="1">
                    <mxGeometry x="-270" y="640" width="100" height="40" as="geometry"/>
                </mxCell>
                <mxCell id="Irhi_nm9dFEaQY86UJpq-71" value="nearest_available&lt;div&gt;date&lt;/div&gt;" style="ellipse;whiteSpace=wrap;html=1;align=center;" parent="1" vertex="1">
                    <mxGeometry x="-380" y="780" width="100" height="40" as="geometry"/>
                </mxCell>
                <mxCell id="Irhi_nm9dFEaQY86UJpq-72" value="" style="endArrow=none;html=1;rounded=0;exitX=0.25;exitY=0;exitDx=0;exitDy=0;entryX=1;entryY=1;entryDx=0;entryDy=0;" parent="1" source="dp8s6cwn2FolOlBTgPiy-5" target="Irhi_nm9dFEaQY86UJpq-68" edge="1">
                    <mxGeometry relative="1" as="geometry">
                        <mxPoint x="-210" y="540" as="sourcePoint"/>
                        <mxPoint x="-230" y="590" as="targetPoint"/>
                    </mxGeometry>
                </mxCell>
                <mxCell id="Irhi_nm9dFEaQY86UJpq-73" value="" style="endArrow=none;html=1;rounded=0;exitX=0.5;exitY=0;exitDx=0;exitDy=0;entryX=0.5;entryY=1;entryDx=0;entryDy=0;" parent="1" source="dp8s6cwn2FolOlBTgPiy-5" target="Irhi_nm9dFEaQY86UJpq-69" edge="1">
                    <mxGeometry relative="1" as="geometry">
                        <mxPoint x="-245" y="710" as="sourcePoint"/>
                        <mxPoint x="-285" y="684" as="targetPoint"/>
                    </mxGeometry>
                </mxCell>
                <mxCell id="Irhi_nm9dFEaQY86UJpq-74" value="" style="endArrow=none;html=1;rounded=0;exitX=0.25;exitY=1;exitDx=0;exitDy=0;entryX=1;entryY=0.5;entryDx=0;entryDy=0;" parent="1" source="dp8s6cwn2FolOlBTgPiy-5" target="Irhi_nm9dFEaQY86UJpq-71" edge="1">
                    <mxGeometry relative="1" as="geometry">
                        <mxPoint x="-235" y="720" as="sourcePoint"/>
                        <mxPoint x="-275" y="694" as="targetPoint"/>
                    </mxGeometry>
                </mxCell>
                <mxCell id="Irhi_nm9dFEaQY86UJpq-75" value="Book_id" style="ellipse;whiteSpace=wrap;html=1;align=center;fontStyle=4;fillColor=#ffe6cc;strokeColor=#d79b00;fontColor=#000000;" parent="1" vertex="1">
                    <mxGeometry x="-10" y="-210" width="100" height="40" as="geometry"/>
                </mxCell>
                <mxCell id="Irhi_nm9dFEaQY86UJpq-76" value="isbn_code" style="ellipse;whiteSpace=wrap;html=1;align=center;" parent="1" vertex="1">
                    <mxGeometry x="110" y="-260" width="100" height="40" as="geometry"/>
                </mxCell>
                <mxCell id="Irhi_nm9dFEaQY86UJpq-77" value="book_title" style="ellipse;whiteSpace=wrap;html=1;align=center;" parent="1" vertex="1">
                    <mxGeometry x="240" y="-100" width="100" height="40" as="geometry"/>
                </mxCell>
                <mxCell id="Irhi_nm9dFEaQY86UJpq-78" value="Caragory_id" style="ellipse;whiteSpace=wrap;html=1;align=center;" parent="1" vertex="1">
                    <mxGeometry x="-10" y="-150" width="100" height="40" as="geometry"/>
                </mxCell>
                <mxCell id="Irhi_nm9dFEaQY86UJpq-79" value="publisher_id" style="ellipse;whiteSpace=wrap;html=1;align=center;" parent="1" vertex="1">
                    <mxGeometry x="-10" y="-100" width="100" height="40" as="geometry"/>
                </mxCell>
                <mxCell id="Irhi_nm9dFEaQY86UJpq-80" value="publication_year" style="ellipse;whiteSpace=wrap;html=1;align=center;" parent="1" vertex="1">
                    <mxGeometry x="240" y="-160" width="100" height="40" as="geometry"/>
                </mxCell>
                <mxCell id="Irhi_nm9dFEaQY86UJpq-81" value="book_edition" style="ellipse;whiteSpace=wrap;html=1;align=center;" parent="1" vertex="1">
                    <mxGeometry x="240" y="-220" width="100" height="40" as="geometry"/>
                </mxCell>
                <mxCell id="Irhi_nm9dFEaQY86UJpq-82" value="coppies_total" style="ellipse;whiteSpace=wrap;html=1;align=center;" parent="1" vertex="1">
                    <mxGeometry x="220" width="100" height="40" as="geometry"/>
                </mxCell>
                <mxCell id="Irhi_nm9dFEaQY86UJpq-83" value="coppies_available" style="ellipse;whiteSpace=wrap;html=1;align=center;" parent="1" vertex="1">
                    <mxGeometry x="210" y="60" width="100" height="40" as="geometry"/>
                </mxCell>
                <mxCell id="Irhi_nm9dFEaQY86UJpq-84" value="location_id" style="ellipse;whiteSpace=wrap;html=1;align=center;" parent="1" vertex="1">
                    <mxGeometry x="90" y="60" width="100" height="40" as="geometry"/>
                </mxCell>
                <mxCell id="Irhi_nm9dFEaQY86UJpq-85" value="" style="endArrow=none;html=1;rounded=0;entryX=0.44;entryY=-0.025;entryDx=0;entryDy=0;exitX=1;exitY=0.5;exitDx=0;exitDy=0;entryPerimeter=0;" parent="1" source="Irhi_nm9dFEaQY86UJpq-75" target="dp8s6cwn2FolOlBTgPiy-6" edge="1">
                    <mxGeometry relative="1" as="geometry">
                        <mxPoint x="-150" y="-90" as="sourcePoint"/>
                        <mxPoint x="-185" y="-40" as="targetPoint"/>
                    </mxGeometry>
                </mxCell>
                <mxCell id="Irhi_nm9dFEaQY86UJpq-86" value="" style="endArrow=none;html=1;rounded=0;entryX=0.25;entryY=0;entryDx=0;entryDy=0;exitX=1;exitY=1;exitDx=0;exitDy=0;" parent="1" source="Irhi_nm9dFEaQY86UJpq-78" target="dp8s6cwn2FolOlBTgPiy-6" edge="1">
                    <mxGeometry relative="1" as="geometry">
                        <mxPoint x="100" y="-180" as="sourcePoint"/>
                        <mxPoint x="154" y="-41" as="targetPoint"/>
                    </mxGeometry>
                </mxCell>
                <mxCell id="Irhi_nm9dFEaQY86UJpq-87" value="" style="endArrow=none;html=1;rounded=0;entryX=0.25;entryY=0;entryDx=0;entryDy=0;exitX=1;exitY=0.5;exitDx=0;exitDy=0;" parent="1" source="Irhi_nm9dFEaQY86UJpq-79" target="dp8s6cwn2FolOlBTgPiy-6" edge="1">
                    <mxGeometry relative="1" as="geometry">
                        <mxPoint x="110" y="-170" as="sourcePoint"/>
                        <mxPoint x="164" y="-31" as="targetPoint"/>
                    </mxGeometry>
                </mxCell>
                <mxCell id="Irhi_nm9dFEaQY86UJpq-88" value="" style="endArrow=none;html=1;rounded=0;entryX=0.5;entryY=0;entryDx=0;entryDy=0;exitX=0.5;exitY=1;exitDx=0;exitDy=0;" parent="1" source="Irhi_nm9dFEaQY86UJpq-76" target="dp8s6cwn2FolOlBTgPiy-6" edge="1">
                    <mxGeometry relative="1" as="geometry">
                        <mxPoint x="100" y="-180" as="sourcePoint"/>
                        <mxPoint x="154" y="-41" as="targetPoint"/>
                    </mxGeometry>
                </mxCell>
                <mxCell id="Irhi_nm9dFEaQY86UJpq-89" value="" style="endArrow=none;html=1;rounded=0;entryX=0.5;entryY=0;entryDx=0;entryDy=0;exitX=0;exitY=0.5;exitDx=0;exitDy=0;" parent="1" source="Irhi_nm9dFEaQY86UJpq-81" target="dp8s6cwn2FolOlBTgPiy-6" edge="1">
                    <mxGeometry relative="1" as="geometry">
                        <mxPoint x="170" y="-210" as="sourcePoint"/>
                        <mxPoint x="160" y="-40" as="targetPoint"/>
                    </mxGeometry>
                </mxCell>
                <mxCell id="Irhi_nm9dFEaQY86UJpq-90" value="" style="endArrow=none;html=1;rounded=0;entryX=0.75;entryY=0;entryDx=0;entryDy=0;exitX=0;exitY=0.5;exitDx=0;exitDy=0;" parent="1" source="Irhi_nm9dFEaQY86UJpq-80" target="dp8s6cwn2FolOlBTgPiy-6" edge="1">
                    <mxGeometry relative="1" as="geometry">
                        <mxPoint x="250" y="-190" as="sourcePoint"/>
                        <mxPoint x="160" y="-40" as="targetPoint"/>
                    </mxGeometry>
                </mxCell>
                <mxCell id="Irhi_nm9dFEaQY86UJpq-91" value="" style="endArrow=none;html=1;rounded=0;entryX=0.75;entryY=0;entryDx=0;entryDy=0;exitX=0;exitY=0.5;exitDx=0;exitDy=0;" parent="1" source="Irhi_nm9dFEaQY86UJpq-77" target="dp8s6cwn2FolOlBTgPiy-6" edge="1">
                    <mxGeometry relative="1" as="geometry">
                        <mxPoint x="260" y="-180" as="sourcePoint"/>
                        <mxPoint x="170" y="-30" as="targetPoint"/>
                    </mxGeometry>
                </mxCell>
                <mxCell id="Irhi_nm9dFEaQY86UJpq-92" value="" style="endArrow=none;html=1;rounded=0;entryX=1;entryY=1;entryDx=0;entryDy=0;exitX=0;exitY=0;exitDx=0;exitDy=0;" parent="1" source="Irhi_nm9dFEaQY86UJpq-82" target="dp8s6cwn2FolOlBTgPiy-6" edge="1">
                    <mxGeometry relative="1" as="geometry">
                        <mxPoint x="250" y="-70" as="sourcePoint"/>
                        <mxPoint x="185" y="-40" as="targetPoint"/>
                    </mxGeometry>
                </mxCell>
                <mxCell id="Irhi_nm9dFEaQY86UJpq-93" value="" style="endArrow=none;html=1;rounded=0;entryX=0.75;entryY=1;entryDx=0;entryDy=0;exitX=0;exitY=0;exitDx=0;exitDy=0;" parent="1" source="Irhi_nm9dFEaQY86UJpq-83" target="dp8s6cwn2FolOlBTgPiy-6" edge="1">
                    <mxGeometry relative="1" as="geometry">
                        <mxPoint x="245" y="16" as="sourcePoint"/>
                        <mxPoint x="210" as="targetPoint"/>
                    </mxGeometry>
                </mxCell>
                <mxCell id="Irhi_nm9dFEaQY86UJpq-94" value="" style="endArrow=none;html=1;rounded=0;entryX=0.5;entryY=1;entryDx=0;entryDy=0;exitX=0.5;exitY=0;exitDx=0;exitDy=0;" parent="1" source="Irhi_nm9dFEaQY86UJpq-84" target="dp8s6cwn2FolOlBTgPiy-6" edge="1">
                    <mxGeometry relative="1" as="geometry">
                        <mxPoint x="255" y="26" as="sourcePoint"/>
                        <mxPoint x="220" y="10" as="targetPoint"/>
                    </mxGeometry>
                </mxCell>
                <mxCell id="Irhi_nm9dFEaQY86UJpq-95" value="Member_id" style="ellipse;whiteSpace=wrap;html=1;align=center;fontStyle=4;fillColor=#ffe6cc;strokeColor=#d79b00;fontColor=#000000;" parent="1" vertex="1">
                    <mxGeometry x="70" y="150" width="100" height="40" as="geometry"/>
                </mxCell>
                <mxCell id="Irhi_nm9dFEaQY86UJpq-96" value="name" style="ellipse;whiteSpace=wrap;html=1;align=center;" parent="1" vertex="1">
                    <mxGeometry x="170" y="190" width="100" height="40" as="geometry"/>
                </mxCell>
                <mxCell id="Irhi_nm9dFEaQY86UJpq-97" value="first_name" style="ellipse;whiteSpace=wrap;html=1;align=center;dashed=1;" parent="1" vertex="1">
                    <mxGeometry x="170" y="130" width="100" height="40" as="geometry"/>
                </mxCell>
                <mxCell id="Irhi_nm9dFEaQY86UJpq-98" value="last_name" style="ellipse;whiteSpace=wrap;html=1;align=center;dashed=1;" parent="1" vertex="1">
                    <mxGeometry x="270" y="130" width="100" height="40" as="geometry"/>
                </mxCell>
                <mxCell id="Irhi_nm9dFEaQY86UJpq-99" value="city" style="ellipse;whiteSpace=wrap;html=1;align=center;" parent="1" vertex="1">
                    <mxGeometry x="280" y="190" width="100" height="40" as="geometry"/>
                </mxCell>
                <mxCell id="Irhi_nm9dFEaQY86UJpq-100" value="mobile_no" style="ellipse;whiteSpace=wrap;html=1;align=center;" parent="1" vertex="1">
                    <mxGeometry x="100" y="360" width="100" height="40" as="geometry"/>
                </mxCell>
                <mxCell id="Irhi_nm9dFEaQY86UJpq-102" value="email_id" style="ellipse;whiteSpace=wrap;html=1;align=center;" parent="1" vertex="1">
                    <mxGeometry x="140" y="410" width="100" height="40" as="geometry"/>
                </mxCell>
                <mxCell id="Irhi_nm9dFEaQY86UJpq-103" value="active_status" style="ellipse;whiteSpace=wrap;html=1;align=center;" parent="1" vertex="1">
                    <mxGeometry x="270" y="330" width="100" height="40" as="geometry"/>
                </mxCell>
                <mxCell id="Irhi_nm9dFEaQY86UJpq-104" value="date_of_birth" style="ellipse;whiteSpace=wrap;html=1;align=center;" parent="1" vertex="1">
                    <mxGeometry x="240" y="380" width="100" height="40" as="geometry"/>
                </mxCell>
                <mxCell id="Irhi_nm9dFEaQY86UJpq-105" value="" style="endArrow=none;html=1;rounded=0;exitX=0.5;exitY=1;exitDx=0;exitDy=0;entryX=0.5;entryY=0;entryDx=0;entryDy=0;" parent="1" source="Irhi_nm9dFEaQY86UJpq-97" target="Irhi_nm9dFEaQY86UJpq-96" edge="1">
                    <mxGeometry relative="1" as="geometry">
                        <mxPoint x="220" y="390" as="sourcePoint"/>
                        <mxPoint x="380" y="390" as="targetPoint"/>
                    </mxGeometry>
                </mxCell>
                <mxCell id="Irhi_nm9dFEaQY86UJpq-106" value="" style="endArrow=none;html=1;rounded=0;exitX=0;exitY=1;exitDx=0;exitDy=0;entryX=0.5;entryY=0;entryDx=0;entryDy=0;" parent="1" source="Irhi_nm9dFEaQY86UJpq-98" target="Irhi_nm9dFEaQY86UJpq-96" edge="1">
                    <mxGeometry relative="1" as="geometry">
                        <mxPoint x="230" y="180" as="sourcePoint"/>
                        <mxPoint x="230" y="200" as="targetPoint"/>
                    </mxGeometry>
                </mxCell>
                <mxCell id="Irhi_nm9dFEaQY86UJpq-107" value="" style="endArrow=none;html=1;rounded=0;exitX=0.5;exitY=1;exitDx=0;exitDy=0;" parent="1" source="Irhi_nm9dFEaQY86UJpq-96" target="dp8s6cwn2FolOlBTgPiy-7" edge="1">
                    <mxGeometry relative="1" as="geometry">
                        <mxPoint x="295" y="174" as="sourcePoint"/>
                        <mxPoint x="230" y="200" as="targetPoint"/>
                        <Array as="points">
                            <mxPoint x="210" y="250"/>
                        </Array>
                    </mxGeometry>
                </mxCell>
                <mxCell id="Irhi_nm9dFEaQY86UJpq-108" value="" style="endArrow=none;html=1;rounded=0;exitX=0;exitY=1;exitDx=0;exitDy=0;entryX=0.75;entryY=0;entryDx=0;entryDy=0;" parent="1" source="Irhi_nm9dFEaQY86UJpq-99" target="dp8s6cwn2FolOlBTgPiy-7" edge="1">
                    <mxGeometry relative="1" as="geometry">
                        <mxPoint x="230" y="240" as="sourcePoint"/>
                        <mxPoint x="217" y="277" as="targetPoint"/>
                    </mxGeometry>
                </mxCell>
                <mxCell id="Irhi_nm9dFEaQY86UJpq-110" value="" style="endArrow=none;html=1;rounded=0;exitX=0.5;exitY=1;exitDx=0;exitDy=0;entryX=0.25;entryY=0;entryDx=0;entryDy=0;" parent="1" source="Irhi_nm9dFEaQY86UJpq-95" target="dp8s6cwn2FolOlBTgPiy-7" edge="1">
                    <mxGeometry relative="1" as="geometry">
                        <mxPoint x="240" y="250" as="sourcePoint"/>
                        <mxPoint x="227" y="287" as="targetPoint"/>
                    </mxGeometry>
                </mxCell>
                <mxCell id="Irhi_nm9dFEaQY86UJpq-111" value="" style="endArrow=none;html=1;rounded=0;entryX=0.5;entryY=0;entryDx=0;entryDy=0;exitX=0.25;exitY=1;exitDx=0;exitDy=0;" parent="1" source="dp8s6cwn2FolOlBTgPiy-7" target="Irhi_nm9dFEaQY86UJpq-100" edge="1">
                    <mxGeometry relative="1" as="geometry">
                        <mxPoint x="200" y="310" as="sourcePoint"/>
                        <mxPoint x="237" y="297" as="targetPoint"/>
                    </mxGeometry>
                </mxCell>
                <mxCell id="Irhi_nm9dFEaQY86UJpq-112" value="" style="endArrow=none;html=1;rounded=0;exitX=0.5;exitY=1;exitDx=0;exitDy=0;entryX=1;entryY=0;entryDx=0;entryDy=0;" parent="1" source="dp8s6cwn2FolOlBTgPiy-7" target="Irhi_nm9dFEaQY86UJpq-102" edge="1">
                    <mxGeometry relative="1" as="geometry">
                        <mxPoint x="260" y="270" as="sourcePoint"/>
                        <mxPoint x="247" y="307" as="targetPoint"/>
                    </mxGeometry>
                </mxCell>
                <mxCell id="Irhi_nm9dFEaQY86UJpq-113" value="" style="endArrow=none;html=1;rounded=0;exitX=0.75;exitY=1;exitDx=0;exitDy=0;entryX=0;entryY=0;entryDx=0;entryDy=0;" parent="1" source="dp8s6cwn2FolOlBTgPiy-7" target="Irhi_nm9dFEaQY86UJpq-104" edge="1">
                    <mxGeometry relative="1" as="geometry">
                        <mxPoint x="270" y="280" as="sourcePoint"/>
                        <mxPoint x="257" y="317" as="targetPoint"/>
                    </mxGeometry>
                </mxCell>
                <mxCell id="Irhi_nm9dFEaQY86UJpq-114" value="" style="endArrow=none;html=1;rounded=0;entryX=0;entryY=0.5;entryDx=0;entryDy=0;exitX=0.75;exitY=1;exitDx=0;exitDy=0;" parent="1" source="dp8s6cwn2FolOlBTgPiy-7" target="Irhi_nm9dFEaQY86UJpq-103" edge="1">
                    <mxGeometry relative="1" as="geometry">
                        <mxPoint x="230" y="310" as="sourcePoint"/>
                        <mxPoint x="267" y="327" as="targetPoint"/>
                    </mxGeometry>
                </mxCell>
                <mxCell id="Irhi_nm9dFEaQY86UJpq-115" value="Active_status_id" style="ellipse;whiteSpace=wrap;html=1;align=center;fontStyle=4;fillColor=#ffe6cc;strokeColor=#d79b00;fontColor=#000000;" parent="1" vertex="1">
                    <mxGeometry x="10" y="840" width="100" height="40" as="geometry"/>
                </mxCell>
                <mxCell id="Irhi_nm9dFEaQY86UJpq-116" value="account_type" style="ellipse;whiteSpace=wrap;html=1;align=center;" parent="1" vertex="1">
                    <mxGeometry x="120" y="870" width="100" height="40" as="geometry"/>
                </mxCell>
                <mxCell id="Irhi_nm9dFEaQY86UJpq-117" value="Account_status" style="ellipse;whiteSpace=wrap;html=1;align=center;" parent="1" vertex="1">
                    <mxGeometry x="240" y="860" width="100" height="40" as="geometry"/>
                </mxCell>
                <mxCell id="Irhi_nm9dFEaQY86UJpq-118" value="membership_start_date" style="ellipse;whiteSpace=wrap;html=1;align=center;" parent="1" vertex="1">
                    <mxGeometry x="270" y="800" width="140" height="50" as="geometry"/>
                </mxCell>
                <mxCell id="Irhi_nm9dFEaQY86UJpq-119" value="membership_end_date" style="ellipse;whiteSpace=wrap;html=1;align=center;" parent="1" vertex="1">
                    <mxGeometry x="270" y="730" width="140" height="50" as="geometry"/>
                </mxCell>
                <mxCell id="Irhi_nm9dFEaQY86UJpq-120" value="" style="endArrow=none;html=1;rounded=0;exitX=0.25;exitY=1;exitDx=0;exitDy=0;entryX=1;entryY=0;entryDx=0;entryDy=0;" parent="1" source="dp8s6cwn2FolOlBTgPiy-8" target="Irhi_nm9dFEaQY86UJpq-115" edge="1">
                    <mxGeometry relative="1" as="geometry">
                        <mxPoint x="20" y="764" as="sourcePoint"/>
                        <mxPoint x="45" y="870" as="targetPoint"/>
                    </mxGeometry>
                </mxCell>
                <mxCell id="Irhi_nm9dFEaQY86UJpq-121" value="" style="endArrow=none;html=1;rounded=0;exitX=0.5;exitY=1;exitDx=0;exitDy=0;entryX=0.5;entryY=0;entryDx=0;entryDy=0;" parent="1" source="dp8s6cwn2FolOlBTgPiy-8" target="Irhi_nm9dFEaQY86UJpq-116" edge="1">
                    <mxGeometry relative="1" as="geometry">
                        <mxPoint x="165" y="810" as="sourcePoint"/>
                        <mxPoint x="105" y="856" as="targetPoint"/>
                    </mxGeometry>
                </mxCell>
                <mxCell id="Irhi_nm9dFEaQY86UJpq-122" value="" style="endArrow=none;html=1;rounded=0;exitX=0.75;exitY=1;exitDx=0;exitDy=0;entryX=0;entryY=0;entryDx=0;entryDy=0;" parent="1" source="dp8s6cwn2FolOlBTgPiy-8" target="Irhi_nm9dFEaQY86UJpq-117" edge="1">
                    <mxGeometry relative="1" as="geometry">
                        <mxPoint x="175" y="820" as="sourcePoint"/>
                        <mxPoint x="115" y="866" as="targetPoint"/>
                    </mxGeometry>
                </mxCell>
                <mxCell id="Irhi_nm9dFEaQY86UJpq-123" value="" style="endArrow=none;html=1;rounded=0;exitX=1;exitY=0.75;exitDx=0;exitDy=0;entryX=0;entryY=0.5;entryDx=0;entryDy=0;" parent="1" source="dp8s6cwn2FolOlBTgPiy-8" target="Irhi_nm9dFEaQY86UJpq-118" edge="1">
                    <mxGeometry relative="1" as="geometry">
                        <mxPoint x="185" y="830" as="sourcePoint"/>
                        <mxPoint x="125" y="876" as="targetPoint"/>
                    </mxGeometry>
                </mxCell>
                <mxCell id="Irhi_nm9dFEaQY86UJpq-124" value="" style="endArrow=none;html=1;rounded=0;exitX=0;exitY=0.5;exitDx=0;exitDy=0;entryX=1;entryY=0.75;entryDx=0;entryDy=0;" parent="1" source="Irhi_nm9dFEaQY86UJpq-119" target="dp8s6cwn2FolOlBTgPiy-8" edge="1">
                    <mxGeometry relative="1" as="geometry">
                        <mxPoint x="195" y="840" as="sourcePoint"/>
                        <mxPoint x="135" y="886" as="targetPoint"/>
                    </mxGeometry>
                </mxCell>
                <mxCell id="Irhi_nm9dFEaQY86UJpq-125" value="book_id" style="ellipse;whiteSpace=wrap;html=1;align=center;" parent="1" vertex="1">
                    <mxGeometry x="560" y="-150" width="100" height="40" as="geometry"/>
                </mxCell>
                <mxCell id="Irhi_nm9dFEaQY86UJpq-126" value="author_id" style="ellipse;whiteSpace=wrap;html=1;align=center;" parent="1" vertex="1">
                    <mxGeometry x="700" y="-140" width="100" height="40" as="geometry"/>
                </mxCell>
                <mxCell id="Irhi_nm9dFEaQY86UJpq-127" value="" style="endArrow=none;html=1;rounded=0;entryX=0.25;entryY=0;entryDx=0;entryDy=0;exitX=0.5;exitY=1;exitDx=0;exitDy=0;" parent="1" source="Irhi_nm9dFEaQY86UJpq-125" target="dp8s6cwn2FolOlBTgPiy-9" edge="1">
                    <mxGeometry relative="1" as="geometry">
                        <mxPoint x="250" y="-70" as="sourcePoint"/>
                        <mxPoint x="185" y="-40" as="targetPoint"/>
                    </mxGeometry>
                </mxCell>
                <mxCell id="Irhi_nm9dFEaQY86UJpq-128" value="" style="endArrow=none;html=1;rounded=0;exitX=0.5;exitY=1;exitDx=0;exitDy=0;" parent="1" source="Irhi_nm9dFEaQY86UJpq-126" edge="1">
                    <mxGeometry relative="1" as="geometry">
                        <mxPoint x="620" y="-100" as="sourcePoint"/>
                        <mxPoint x="680" y="-50" as="targetPoint"/>
                    </mxGeometry>
                </mxCell>
                <mxCell id="Irhi_nm9dFEaQY86UJpq-129" value="Issue_id" style="ellipse;whiteSpace=wrap;html=1;align=center;fontStyle=4;fillColor=#ffe6cc;strokeColor=#d79b00;fontColor=#000000;" parent="1" vertex="1">
                    <mxGeometry x="650" y="100" width="100" height="40" as="geometry"/>
                </mxCell>
                <mxCell id="Irhi_nm9dFEaQY86UJpq-130" value="book_id" style="ellipse;whiteSpace=wrap;html=1;align=center;" parent="1" vertex="1">
                    <mxGeometry x="580" y="160" width="100" height="40" as="geometry"/>
                </mxCell>
                <mxCell id="Irhi_nm9dFEaQY86UJpq-131" value="member_id" style="ellipse;whiteSpace=wrap;html=1;align=center;" parent="1" vertex="1">
                    <mxGeometry x="700" y="160" width="100" height="40" as="geometry"/>
                </mxCell>
                <mxCell id="Irhi_nm9dFEaQY86UJpq-132" value="issue_date" style="ellipse;whiteSpace=wrap;html=1;align=center;" parent="1" vertex="1">
                    <mxGeometry x="720" y="210" width="100" height="40" as="geometry"/>
                </mxCell>
                <mxCell id="Irhi_nm9dFEaQY86UJpq-133" value="return_date" style="ellipse;whiteSpace=wrap;html=1;align=center;" parent="1" vertex="1">
                    <mxGeometry x="540" y="320" width="100" height="40" as="geometry"/>
                </mxCell>
                <mxCell id="Irhi_nm9dFEaQY86UJpq-134" value="issue_status" style="ellipse;whiteSpace=wrap;html=1;align=center;" parent="1" vertex="1">
                    <mxGeometry x="590" y="370" width="100" height="40" as="geometry"/>
                </mxCell>
                <mxCell id="Irhi_nm9dFEaQY86UJpq-135" value="issued_by_id" style="ellipse;whiteSpace=wrap;html=1;align=center;" parent="1" vertex="1">
                    <mxGeometry x="700" y="370" width="100" height="40" as="geometry"/>
                </mxCell>
                <mxCell id="Irhi_nm9dFEaQY86UJpq-136" value="" style="endArrow=none;html=1;rounded=0;exitX=0.25;exitY=1;exitDx=0;exitDy=0;entryX=1;entryY=0;entryDx=0;entryDy=0;" parent="1" source="dp8s6cwn2FolOlBTgPiy-10" target="Irhi_nm9dFEaQY86UJpq-133" edge="1">
                    <mxGeometry relative="1" as="geometry">
                        <mxPoint x="650" y="340" as="sourcePoint"/>
                        <mxPoint x="810" y="340" as="targetPoint"/>
                    </mxGeometry>
                </mxCell>
                <mxCell id="Irhi_nm9dFEaQY86UJpq-137" value="" style="endArrow=none;html=1;rounded=0;exitX=0.4;exitY=1;exitDx=0;exitDy=0;entryX=0.65;entryY=0.1;entryDx=0;entryDy=0;exitPerimeter=0;entryPerimeter=0;" parent="1" source="dp8s6cwn2FolOlBTgPiy-10" target="Irhi_nm9dFEaQY86UJpq-134" edge="1">
                    <mxGeometry relative="1" as="geometry">
                        <mxPoint x="685" y="310" as="sourcePoint"/>
                        <mxPoint x="635" y="336" as="targetPoint"/>
                    </mxGeometry>
                </mxCell>
                <mxCell id="Irhi_nm9dFEaQY86UJpq-138" value="" style="endArrow=none;html=1;rounded=0;exitX=0.5;exitY=1;exitDx=0;exitDy=0;entryX=0;entryY=0;entryDx=0;entryDy=0;" parent="1" source="dp8s6cwn2FolOlBTgPiy-10" target="Irhi_nm9dFEaQY86UJpq-135" edge="1">
                    <mxGeometry relative="1" as="geometry">
                        <mxPoint x="695" y="320" as="sourcePoint"/>
                        <mxPoint x="645" y="346" as="targetPoint"/>
                    </mxGeometry>
                </mxCell>
                <mxCell id="Irhi_nm9dFEaQY86UJpq-139" value="" style="endArrow=none;html=1;rounded=0;exitX=0;exitY=1;exitDx=0;exitDy=0;entryX=0.5;entryY=0;entryDx=0;entryDy=0;" parent="1" source="Irhi_nm9dFEaQY86UJpq-132" target="dp8s6cwn2FolOlBTgPiy-10" edge="1">
                    <mxGeometry relative="1" as="geometry">
                        <mxPoint x="705" y="330" as="sourcePoint"/>
                        <mxPoint x="655" y="356" as="targetPoint"/>
                    </mxGeometry>
                </mxCell>
                <mxCell id="Irhi_nm9dFEaQY86UJpq-140" value="" style="endArrow=none;html=1;rounded=0;exitX=0;exitY=1;exitDx=0;exitDy=0;entryX=0.44;entryY=0.1;entryDx=0;entryDy=0;entryPerimeter=0;" parent="1" source="Irhi_nm9dFEaQY86UJpq-131" target="dp8s6cwn2FolOlBTgPiy-10" edge="1">
                    <mxGeometry relative="1" as="geometry">
                        <mxPoint x="715" y="340" as="sourcePoint"/>
                        <mxPoint x="665" y="366" as="targetPoint"/>
                    </mxGeometry>
                </mxCell>
                <mxCell id="Irhi_nm9dFEaQY86UJpq-141" value="" style="endArrow=none;html=1;rounded=0;exitX=0.41;exitY=0.9;exitDx=0;exitDy=0;entryX=0.37;entryY=0.125;entryDx=0;entryDy=0;exitPerimeter=0;entryPerimeter=0;" parent="1" source="Irhi_nm9dFEaQY86UJpq-129" target="dp8s6cwn2FolOlBTgPiy-10" edge="1">
                    <mxGeometry relative="1" as="geometry">
                        <mxPoint x="725" y="350" as="sourcePoint"/>
                        <mxPoint x="675" y="376" as="targetPoint"/>
                    </mxGeometry>
                </mxCell>
                <mxCell id="Irhi_nm9dFEaQY86UJpq-142" value="" style="endArrow=none;html=1;rounded=0;exitX=0.14;exitY=0;exitDx=0;exitDy=0;entryX=0.62;entryY=1;entryDx=0;entryDy=0;exitPerimeter=0;entryPerimeter=0;" parent="1" source="dp8s6cwn2FolOlBTgPiy-10" target="Irhi_nm9dFEaQY86UJpq-130" edge="1">
                    <mxGeometry relative="1" as="geometry">
                        <mxPoint x="735" y="360" as="sourcePoint"/>
                        <mxPoint x="685" y="386" as="targetPoint"/>
                    </mxGeometry>
                </mxCell>
                <mxCell id="Irhi_nm9dFEaQY86UJpq-143" value="name" style="ellipse;whiteSpace=wrap;html=1;align=center;" parent="1" vertex="1">
                    <mxGeometry x="1150" y="-130" width="100" height="40" as="geometry"/>
                </mxCell>
                <mxCell id="Irhi_nm9dFEaQY86UJpq-144" value="first_name" style="ellipse;whiteSpace=wrap;html=1;align=center;dashed=1;" parent="1" vertex="1">
                    <mxGeometry x="1100" y="-190" width="100" height="40" as="geometry"/>
                </mxCell>
                <mxCell id="Irhi_nm9dFEaQY86UJpq-145" value="last_name" style="ellipse;whiteSpace=wrap;html=1;align=center;dashed=1;" parent="1" vertex="1">
                    <mxGeometry x="1230" y="-190" width="100" height="40" as="geometry"/>
                </mxCell>
                <mxCell id="Irhi_nm9dFEaQY86UJpq-147" value="" style="endArrow=none;html=1;rounded=0;exitX=0.5;exitY=1;exitDx=0;exitDy=0;entryX=0.5;entryY=0;entryDx=0;entryDy=0;" parent="1" source="Irhi_nm9dFEaQY86UJpq-144" target="Irhi_nm9dFEaQY86UJpq-143" edge="1">
                    <mxGeometry relative="1" as="geometry">
                        <mxPoint x="1150" y="70" as="sourcePoint"/>
                        <mxPoint x="1310" y="70" as="targetPoint"/>
                    </mxGeometry>
                </mxCell>
                <mxCell id="Irhi_nm9dFEaQY86UJpq-148" value="" style="endArrow=none;html=1;rounded=0;exitX=0;exitY=1;exitDx=0;exitDy=0;entryX=0.5;entryY=0;entryDx=0;entryDy=0;" parent="1" source="Irhi_nm9dFEaQY86UJpq-145" target="Irhi_nm9dFEaQY86UJpq-143" edge="1">
                    <mxGeometry relative="1" as="geometry">
                        <mxPoint x="1160" y="-140" as="sourcePoint"/>
                        <mxPoint x="1160" y="-120" as="targetPoint"/>
                    </mxGeometry>
                </mxCell>
                <mxCell id="Irhi_nm9dFEaQY86UJpq-149" value="author_id" style="ellipse;whiteSpace=wrap;html=1;align=center;fontStyle=4;fillColor=#ffe6cc;strokeColor=#d79b00;fontColor=#000000;" parent="1" vertex="1">
                    <mxGeometry x="1010" y="-140" width="100" height="40" as="geometry"/>
                </mxCell>
                <mxCell id="Irhi_nm9dFEaQY86UJpq-150" value="" style="endArrow=none;html=1;rounded=0;exitX=0.97;exitY=0.725;exitDx=0;exitDy=0;entryX=0.25;entryY=0;entryDx=0;entryDy=0;exitPerimeter=0;" parent="1" source="Irhi_nm9dFEaQY86UJpq-149" target="dp8s6cwn2FolOlBTgPiy-11" edge="1">
                    <mxGeometry relative="1" as="geometry">
                        <mxPoint x="1160" y="-140" as="sourcePoint"/>
                        <mxPoint x="1200" y="-120" as="targetPoint"/>
                    </mxGeometry>
                </mxCell>
                <mxCell id="Irhi_nm9dFEaQY86UJpq-151" value="" style="endArrow=none;html=1;rounded=0;exitX=0.32;exitY=0.925;exitDx=0;exitDy=0;entryX=0.6;entryY=0;entryDx=0;entryDy=0;entryPerimeter=0;exitPerimeter=0;" parent="1" source="Irhi_nm9dFEaQY86UJpq-143" target="dp8s6cwn2FolOlBTgPiy-11" edge="1">
                    <mxGeometry relative="1" as="geometry">
                        <mxPoint x="1170" y="-130" as="sourcePoint"/>
                        <mxPoint x="1210" y="-110" as="targetPoint"/>
                    </mxGeometry>
                </mxCell>
                <mxCell id="Irhi_nm9dFEaQY86UJpq-152" value="issued_by_id" style="ellipse;whiteSpace=wrap;html=1;align=center;fontStyle=4;fillColor=#ffe6cc;strokeColor=#d79b00;fontColor=#000000;" parent="1" vertex="1">
                    <mxGeometry x="1060" y="50" width="100" height="40" as="geometry"/>
                </mxCell>
                <mxCell id="Irhi_nm9dFEaQY86UJpq-153" value="" style="endArrow=none;html=1;rounded=0;exitX=0.79;exitY=0.95;exitDx=0;exitDy=0;entryX=0.39;entryY=0.025;entryDx=0;entryDy=0;entryPerimeter=0;exitPerimeter=0;" parent="1" source="Irhi_nm9dFEaQY86UJpq-152" target="dp8s6cwn2FolOlBTgPiy-12" edge="1">
                    <mxGeometry relative="1" as="geometry">
                        <mxPoint x="1192" y="-83" as="sourcePoint"/>
                        <mxPoint x="1200" y="-40" as="targetPoint"/>
                    </mxGeometry>
                </mxCell>
                <mxCell id="Irhi_nm9dFEaQY86UJpq-154" value="staff_name" style="ellipse;whiteSpace=wrap;html=1;align=center;" parent="1" vertex="1">
                    <mxGeometry x="1190" y="50" width="100" height="40" as="geometry"/>
                </mxCell>
                <mxCell id="Irhi_nm9dFEaQY86UJpq-155" value="staff_designation" style="ellipse;whiteSpace=wrap;html=1;align=center;" parent="1" vertex="1">
                    <mxGeometry x="1290" y="110" width="100" height="40" as="geometry"/>
                </mxCell>
                <mxCell id="Irhi_nm9dFEaQY86UJpq-156" value="" style="endArrow=none;html=1;rounded=0;exitX=0.37;exitY=0.95;exitDx=0;exitDy=0;entryX=0.5;entryY=0;entryDx=0;entryDy=0;exitPerimeter=0;" parent="1" source="Irhi_nm9dFEaQY86UJpq-154" target="dp8s6cwn2FolOlBTgPiy-12" edge="1">
                    <mxGeometry relative="1" as="geometry">
                        <mxPoint x="1149" y="98" as="sourcePoint"/>
                        <mxPoint x="1199" y="141" as="targetPoint"/>
                    </mxGeometry>
                </mxCell>
                <mxCell id="Irhi_nm9dFEaQY86UJpq-157" value="" style="endArrow=none;html=1;rounded=0;exitX=1;exitY=0.25;exitDx=0;exitDy=0;entryX=0;entryY=0.5;entryDx=0;entryDy=0;" parent="1" source="dp8s6cwn2FolOlBTgPiy-12" target="Irhi_nm9dFEaQY86UJpq-155" edge="1">
                    <mxGeometry relative="1" as="geometry">
                        <mxPoint x="1159" y="108" as="sourcePoint"/>
                        <mxPoint x="1209" y="151" as="targetPoint"/>
                    </mxGeometry>
                </mxCell>
                <mxCell id="Irhi_nm9dFEaQY86UJpq-158" value="fine_id" style="ellipse;whiteSpace=wrap;html=1;align=center;fontStyle=4;fillColor=#ffe6cc;strokeColor=#d79b00;fontColor=#000000;" parent="1" vertex="1">
                    <mxGeometry x="1130" y="220" width="100" height="40" as="geometry"/>
                </mxCell>
                <mxCell id="Irhi_nm9dFEaQY86UJpq-159" value="member_id" style="ellipse;whiteSpace=wrap;html=1;align=center;" parent="1" vertex="1">
                    <mxGeometry x="1240" y="220" width="100" height="40" as="geometry"/>
                </mxCell>
                <mxCell id="Irhi_nm9dFEaQY86UJpq-160" value="issue_id" style="ellipse;whiteSpace=wrap;html=1;align=center;" parent="1" vertex="1">
                    <mxGeometry x="1300" y="280" width="100" height="40" as="geometry"/>
                </mxCell>
                <mxCell id="Irhi_nm9dFEaQY86UJpq-161" value="fine_date" style="ellipse;whiteSpace=wrap;html=1;align=center;" parent="1" vertex="1">
                    <mxGeometry x="1300" y="340" width="100" height="40" as="geometry"/>
                </mxCell>
                <mxCell id="Irhi_nm9dFEaQY86UJpq-162" value="fine_total" style="ellipse;whiteSpace=wrap;html=1;align=center;" parent="1" vertex="1">
                    <mxGeometry x="1240" y="390" width="100" height="40" as="geometry"/>
                </mxCell>
                <mxCell id="Irhi_nm9dFEaQY86UJpq-163" value="fine_payment_id" style="ellipse;whiteSpace=wrap;html=1;align=center;fontStyle=4;fillColor=#ffe6cc;strokeColor=#d79b00;fontColor=#000000;" parent="1" vertex="1">
                    <mxGeometry x="1110" y="570" width="100" height="40" as="geometry"/>
                </mxCell>
                <mxCell id="Irhi_nm9dFEaQY86UJpq-164" value="member_id" style="ellipse;whiteSpace=wrap;html=1;align=center;" parent="1" vertex="1">
                    <mxGeometry x="1230" y="570" width="100" height="40" as="geometry"/>
                </mxCell>
                <mxCell id="Irhi_nm9dFEaQY86UJpq-165" value="payment_date" style="ellipse;whiteSpace=wrap;html=1;align=center;" parent="1" vertex="1">
                    <mxGeometry x="1310" y="510" width="100" height="40" as="geometry"/>
                </mxCell>
                <mxCell id="Irhi_nm9dFEaQY86UJpq-166" value="payment_amount" style="ellipse;whiteSpace=wrap;html=1;align=center;" parent="1" vertex="1">
                    <mxGeometry x="1300" y="450" width="100" height="40" as="geometry"/>
                </mxCell>
                <mxCell id="Irhi_nm9dFEaQY86UJpq-167" value="" style="endArrow=none;html=1;rounded=0;exitX=0.44;exitY=1.1;exitDx=0;exitDy=0;entryX=0.25;entryY=0;entryDx=0;entryDy=0;exitPerimeter=0;" parent="1" source="Irhi_nm9dFEaQY86UJpq-158" target="dp8s6cwn2FolOlBTgPiy-13" edge="1">
                    <mxGeometry relative="1" as="geometry">
                        <mxPoint x="1149" y="98" as="sourcePoint"/>
                        <mxPoint x="1199" y="141" as="targetPoint"/>
                    </mxGeometry>
                </mxCell>
                <mxCell id="Irhi_nm9dFEaQY86UJpq-168" value="" style="endArrow=none;html=1;rounded=0;exitX=0;exitY=1;exitDx=0;exitDy=0;entryX=0.62;entryY=0.075;entryDx=0;entryDy=0;entryPerimeter=0;" parent="1" source="Irhi_nm9dFEaQY86UJpq-159" target="dp8s6cwn2FolOlBTgPiy-13" edge="1">
                    <mxGeometry relative="1" as="geometry">
                        <mxPoint x="1184" y="274" as="sourcePoint"/>
                        <mxPoint x="1205" y="310" as="targetPoint"/>
                    </mxGeometry>
                </mxCell>
                <mxCell id="Irhi_nm9dFEaQY86UJpq-169" value="" style="endArrow=none;html=1;rounded=0;exitX=1;exitY=0.25;exitDx=0;exitDy=0;entryX=0;entryY=0.5;entryDx=0;entryDy=0;" parent="1" source="dp8s6cwn2FolOlBTgPiy-13" target="Irhi_nm9dFEaQY86UJpq-160" edge="1">
                    <mxGeometry relative="1" as="geometry">
                        <mxPoint x="1194" y="284" as="sourcePoint"/>
                        <mxPoint x="1215" y="320" as="targetPoint"/>
                    </mxGeometry>
                </mxCell>
                <mxCell id="Irhi_nm9dFEaQY86UJpq-170" value="" style="endArrow=none;html=1;rounded=0;exitX=1;exitY=0.75;exitDx=0;exitDy=0;entryX=0;entryY=0;entryDx=0;entryDy=0;" parent="1" source="dp8s6cwn2FolOlBTgPiy-13" target="Irhi_nm9dFEaQY86UJpq-161" edge="1">
                    <mxGeometry relative="1" as="geometry">
                        <mxPoint x="1204" y="294" as="sourcePoint"/>
                        <mxPoint x="1225" y="330" as="targetPoint"/>
                    </mxGeometry>
                </mxCell>
                <mxCell id="Irhi_nm9dFEaQY86UJpq-171" value="" style="endArrow=none;html=1;rounded=0;exitX=0.63;exitY=0.975;exitDx=0;exitDy=0;entryX=0.3;entryY=0;entryDx=0;entryDy=0;exitPerimeter=0;entryPerimeter=0;" parent="1" source="dp8s6cwn2FolOlBTgPiy-13" target="Irhi_nm9dFEaQY86UJpq-162" edge="1">
                    <mxGeometry relative="1" as="geometry">
                        <mxPoint x="1214" y="304" as="sourcePoint"/>
                        <mxPoint x="1235" y="340" as="targetPoint"/>
                    </mxGeometry>
                </mxCell>
                <mxCell id="Irhi_nm9dFEaQY86UJpq-172" value="" style="endArrow=none;html=1;rounded=0;exitX=1;exitY=0.25;exitDx=0;exitDy=0;entryX=0;entryY=0.5;entryDx=0;entryDy=0;" parent="1" source="dp8s6cwn2FolOlBTgPiy-14" target="Irhi_nm9dFEaQY86UJpq-166" edge="1">
                    <mxGeometry relative="1" as="geometry">
                        <mxPoint x="1224" y="314" as="sourcePoint"/>
                        <mxPoint x="1245" y="350" as="targetPoint"/>
                    </mxGeometry>
                </mxCell>
                <mxCell id="Irhi_nm9dFEaQY86UJpq-173" value="" style="endArrow=none;html=1;rounded=0;exitX=0.918;exitY=0.975;exitDx=0;exitDy=0;entryX=0.02;entryY=0.675;entryDx=0;entryDy=0;entryPerimeter=0;exitPerimeter=0;" parent="1" source="dp8s6cwn2FolOlBTgPiy-14" target="Irhi_nm9dFEaQY86UJpq-165" edge="1">
                    <mxGeometry relative="1" as="geometry">
                        <mxPoint x="1280" y="500" as="sourcePoint"/>
                        <mxPoint x="1310" y="480" as="targetPoint"/>
                    </mxGeometry>
                </mxCell>
                <mxCell id="Irhi_nm9dFEaQY86UJpq-174" value="" style="endArrow=none;html=1;rounded=0;exitX=0.4;exitY=0.025;exitDx=0;exitDy=0;entryX=0.673;entryY=0.9;entryDx=0;entryDy=0;exitPerimeter=0;entryPerimeter=0;" parent="1" source="Irhi_nm9dFEaQY86UJpq-164" target="dp8s6cwn2FolOlBTgPiy-14" edge="1">
                    <mxGeometry relative="1" as="geometry">
                        <mxPoint x="1290" y="510" as="sourcePoint"/>
                        <mxPoint x="1320" y="490" as="targetPoint"/>
                    </mxGeometry>
                </mxCell>
                <mxCell id="Irhi_nm9dFEaQY86UJpq-175" value="" style="endArrow=none;html=1;rounded=0;exitX=0.6;exitY=0;exitDx=0;exitDy=0;entryX=0.5;entryY=1;entryDx=0;entryDy=0;exitPerimeter=0;" parent="1" source="Irhi_nm9dFEaQY86UJpq-163" target="dp8s6cwn2FolOlBTgPiy-14" edge="1">
                    <mxGeometry relative="1" as="geometry">
                        <mxPoint x="1300" y="520" as="sourcePoint"/>
                        <mxPoint x="1330" y="500" as="targetPoint"/>
                    </mxGeometry>
                </mxCell>
            </root>
        </mxGraphModel>
    </diagram>
</mxfile>